<svg width="24" height="25" viewBox="0 0 24 25" fill="none" xmlns="http://www.w3.org/2000/svg">
<path fill-rule="evenodd" clip-rule="evenodd" d="M13.425 17.6778C13.5442 17.201 13.82 17.1561 14.1274 17.1561C14.4374 17.1561 14.932 17.7575 15.2214 18.0489L17.2258 20.0651C17.8296 20.663 17.371 21.0349 17.1676 21.4223L13.425 17.6778ZM12.2064 24.4363H11.142C10.4092 24.3898 9.67521 24.2457 8.95021 23.991C7.84901 23.6046 7.04821 23.1776 6.13081 22.5633C5.63261 22.2297 4.61921 21.4106 4.16561 20.9711C3.32601 20.1577 2.21081 18.8705 1.60061 17.8497C1.50981 17.6977 1.44541 17.5723 1.34861 17.4078C1.01121 16.8354 0.683606 16.1074 0.463606 15.4236C0.055006 14.1534 0.0324097 13.5379 0.0324097 12.2408C0.0324097 11.4828 0.228808 10.6825 0.390808 10.0978C0.575608 9.43016 0.822809 8.88614 1.10661 8.31434C1.52781 7.4659 2.56961 5.88821 3.62521 5.88821C4.50941 5.88821 4.68361 6.09579 5.29501 6.71129L7.48301 8.91393C7.67401 9.10621 7.86221 9.27835 8.00041 9.50586C8.09861 9.66794 8.23141 10.0755 8.23141 10.3398C8.23141 11.0463 7.88741 11.4099 7.35361 11.7282C4.04381 13.7018 6.25081 14.9988 6.25081 15.7651C6.25081 15.9622 5.99941 16.1825 5.79021 16.1825C5.42741 16.1825 5.18021 15.686 4.96241 15.3C4.18161 13.917 4.68541 12.4142 5.97441 11.5454C5.82221 11.3165 5.31601 10.8595 5.08781 10.6295C4.77701 10.3169 4.50021 10.038 4.18941 9.72532C4.00621 9.5409 2.59461 8.03207 2.38161 7.97489C2.27261 8.38541 0.519606 10.4699 1.07821 13.924C1.14961 14.3654 1.22541 14.6203 1.33861 15.0066C1.52961 15.6582 1.82841 16.3653 2.14241 16.8869C2.73141 17.866 3.37581 18.8003 4.16561 19.6263C4.60941 20.0906 5.42401 20.8509 5.92761 21.2377C6.63241 21.7791 6.79381 21.8624 7.53161 22.3122C7.93321 22.557 8.48541 22.798 8.94821 22.9728C9.40821 23.1465 10.0164 23.3104 10.5144 23.3902C11.8774 23.6084 13.039 23.4945 14.3292 23.063C14.7136 22.9343 15.06 22.7857 15.4018 22.6126C15.7628 22.4298 16.0452 22.2522 16.3844 22.0714C16.3276 21.857 16.1064 21.7221 15.9584 21.5729C15.5174 21.1289 13.04 18.5911 12.8376 18.4546C11.9676 19.7625 10.437 20.2668 9.07921 19.4558C8.87921 19.3364 8.73241 19.2372 8.54381 19.1137C7.89901 18.6915 8.37341 18.1763 8.69201 18.1763C9.06401 18.1763 9.46761 18.7443 10.2192 18.8669C10.8758 18.9738 11.3666 18.6652 11.721 18.3042C11.9446 18.0768 12.041 17.9611 12.2324 17.7062C12.5812 17.2411 12.8074 16.6896 13.1786 16.4329C13.6576 16.1019 14.4064 16.1118 14.8914 16.4333C15.2444 16.6673 17.226 18.7221 17.6626 19.1617C18.2646 19.7677 18.4572 19.9465 18.4572 20.8195C18.4572 21.8852 16.8866 22.9355 16.0162 23.3702C14.804 23.9755 13.515 24.3542 12.2064 24.4363ZM3.01501 7.19812C3.84621 6.74994 3.73341 6.48397 4.76521 7.52268L6.49261 9.26164C6.96861 9.74062 7.26421 9.85438 7.26421 10.4324C7.26421 10.6986 6.98581 10.8891 6.75741 10.9426L3.01501 7.19812Z" fill="#FEFEFE"/>
<path fill-rule="evenodd" clip-rule="evenodd" d="M10.7188 7.65034C10.7188 7.26397 10.7988 6.67305 10.8758 6.32453C11.2744 4.52114 12.5826 2.88949 14.2522 2.16488C16.5714 1.15838 19.1548 1.60515 20.9332 3.39566C22.7112 5.18556 23.1428 7.7345 22.1692 10.0888C22.0416 10.397 21.8188 10.787 21.6426 11.0423C20.794 12.2719 19.5716 13.1392 18.099 13.5033C16.5966 13.8745 15.185 13.6053 13.9428 12.9832C13.7648 12.894 13.5306 12.7235 13.3784 12.6663C13.1528 12.5815 12.2956 12.858 12.014 12.9421C11.842 12.9935 11.4648 13.1058 11.2716 13.1219C11.324 12.4877 11.7322 11.7357 11.7322 11.0352L11.3636 10.3398C11.0866 9.78071 10.927 9.31018 10.8168 8.66448C10.77 8.39026 10.7188 7.94591 10.7188 7.65034ZM16.3836 0.694702H17.0884C18.0042 0.740607 18.9074 0.965099 19.7166 1.37442C21.1908 2.12038 22.2816 3.237 22.9872 4.71281C23.4944 5.77347 23.6162 6.67365 23.6162 7.92839C23.6162 10.4934 21.9108 12.8382 19.6556 13.9573C17.7114 14.9221 15.36 14.7832 13.4514 13.8024C13.063 13.6029 13.2266 13.585 12.751 13.7302C12.5074 13.8047 11.488 14.0948 11.2804 14.0831C10.789 14.0557 10.389 13.6788 10.3194 13.1495C10.2928 12.9478 10.4086 12.6085 10.4606 12.3983C10.7432 11.2533 10.869 11.454 10.611 10.9583C10.3918 10.5373 10.201 10.1039 10.0638 9.60796C9.77658 8.56925 9.79758 8.31879 9.79758 7.27928C9.79758 6.18198 10.2632 4.93227 10.7504 4.11142C10.81 4.01095 10.8494 3.93806 10.9054 3.85008C10.9618 3.76149 11.0094 3.70793 11.0782 3.60686C11.2088 3.41458 11.2882 3.30948 11.4442 3.14056C11.5374 3.03969 11.542 3.00848 11.6288 2.90922C11.8792 2.62312 12.0604 2.51178 12.2504 2.32937C12.5048 2.08494 12.9088 1.82481 13.2206 1.63676C14.1644 1.06758 15.2676 0.749869 16.3836 0.694702Z" fill="#FEFEFE"/>
<path fill-rule="evenodd" clip-rule="evenodd" d="M13.4826 7.65035C13.4826 6.42279 14.2806 5.16483 15.39 4.70175C16.6816 4.16236 18.0172 4.40095 18.9758 5.36617C20.6762 7.07774 19.9042 9.81373 18.0236 10.5988C16.732 11.1381 15.3966 10.8996 14.438 9.93433C14.1926 9.68729 13.9224 9.32649 13.778 8.97596C13.6338 8.62604 13.4826 8.11685 13.4826 7.65035ZM12.5612 7.41841C12.5612 8.72872 12.8622 9.69212 13.7704 10.6064C14.0908 10.9289 14.4752 11.2171 14.8938 11.423C15.9968 11.9654 17.3766 11.9594 18.4888 11.4379C19.31 11.053 20.0558 10.2973 20.4546 9.47548C21.4454 7.43391 20.575 4.86403 18.5194 3.87807C17.148 3.2201 15.5798 3.36265 14.3202 4.22739C14.0842 4.38947 13.9692 4.49397 13.7704 4.6941C13.1004 5.36858 12.5612 6.40165 12.5612 7.41841Z" fill="#FEFEFE"/>
<path fill-rule="evenodd" clip-rule="evenodd" d="M16.5226 9.73703C17.1606 9.73703 17.673 9.66314 18.17 9.21576C18.868 8.58738 18.2436 8.25316 17.9966 8.25316C17.6422 8.25316 17.107 9.20509 16.0298 8.61013C16.019 8.60409 15.1662 7.80599 14.9458 8.61517C14.864 8.91516 15.08 9.06677 15.22 9.19361C15.4894 9.43744 16.036 9.73703 16.5226 9.73703Z" fill="#FEFEFE"/>
<path fill-rule="evenodd" clip-rule="evenodd" d="M6.66541 17.249C6.66541 17.9347 7.6326 17.8629 7.6326 17.2953C7.6326 16.6097 6.66541 16.6814 6.66541 17.249Z" fill="#FEFEFE"/>
<path fill-rule="evenodd" clip-rule="evenodd" d="M14.8644 6.9084C14.8644 7.60181 15.7856 7.60181 15.7856 6.9084C15.7856 6.34808 14.8644 6.34808 14.8644 6.9084Z" fill="#FEFEFE"/>
<path fill-rule="evenodd" clip-rule="evenodd" d="M17.6282 6.9084C17.6282 7.60181 18.5494 7.60181 18.5494 6.9084C18.5494 6.34808 17.6282 6.34808 17.6282 6.9084Z" fill="#FEFEFE"/>
</svg>
