<svg width="41" height="34" viewBox="0 0 41 34" fill="none" xmlns="http://www.w3.org/2000/svg">
<path fill-rule="evenodd" clip-rule="evenodd" d="M0.777954 2.23851V32.1609C0.777954 33.2745 1.86456 33.7803 3.01436 33.7803H38.0265C39.1763 33.7803 40.2629 33.2745 40.2629 32.1609V17.8167C40.2629 17.3179 39.1908 17.0433 39.1036 17.8913L39.1061 31.0813C39.1069 31.8003 39.2188 32.5463 38.4892 32.5463H2.55178C2.09198 32.5463 1.93475 32.2353 1.93475 31.7753V7.25132H39.1061V15.5031C39.1061 16.0981 40.2629 16.0875 40.2629 15.5031V2.23851C40.2629 1.12492 39.1763 0.619141 38.0265 0.619141H10.3408C9.91016 0.619141 9.49256 0.845733 9.49256 1.23613C9.49256 1.93813 10.1088 1.85492 10.8034 1.85312L37.8724 1.85293C39.4622 1.84593 39.1061 1.90614 39.1061 6.01753H1.93475V2.62414C1.93475 1.56734 2.92318 1.85312 4.86537 1.85312L7.62654 1.83812C8.30774 1.70132 8.36716 0.619141 7.25576 0.619141H3.01436C1.86456 0.619141 0.777954 1.12492 0.777954 2.23851Z" fill="#268698"/>
<path fill-rule="evenodd" clip-rule="evenodd" d="M30.0835 20.5929C29.4573 20.1737 29.0436 19.5905 28.5408 19.5905C28.0686 19.5905 27.9744 19.9573 27.7132 20.2283L26.2476 21.8471C26.001 22.0899 25.7157 22.4029 25.5335 22.6753C24.8175 22.5085 22.4166 21.3641 22.063 21.3641C21.7658 21.3641 21.389 21.6373 21.1616 21.7739C20.8618 21.9545 20.6344 22.0731 20.3326 22.2559C20.0006 22.4567 18.8748 23.1493 18.5926 23.2149L18.5776 17.2919C18.4408 16.6107 17.3586 16.5511 17.3586 17.6623V28.9988C17.3586 29.6688 17.5314 30.0014 18.2068 30.0014H35.6358C36.5226 30.0014 36.592 28.7677 35.713 28.7677H35.3272V24.6803C35.3272 24.1549 34.1704 23.9481 34.1704 24.8345V28.7677H32.3966C32.3966 28.2649 32.4638 27.6109 31.78 27.6109C31.0628 27.6109 31.163 28.2973 31.163 28.7677H28.8494C28.8494 28.0175 28.8924 27.6109 28.0782 27.6109C27.5472 27.6109 27.6154 28.4753 27.6154 28.7677H25.3018C25.3018 28.1301 25.3691 27.6109 24.5307 27.6109C23.9997 27.6109 24.068 28.4753 24.068 28.7677H21.7544C21.7544 28.0499 21.7618 27.6109 20.983 27.6109C20.4522 27.6109 20.5204 28.4753 20.5204 28.7677H18.5926V24.6031C19.0038 24.5073 21.3126 23.0193 21.9398 22.6999C22.2026 22.5661 22.2572 22.6911 22.823 22.9175C23.123 23.0377 23.4529 23.1695 23.7685 23.2831C26.1423 24.1379 25.419 24.5171 27.2114 22.5799L28.2511 21.3827C28.4105 21.2125 28.4904 21.1689 28.618 20.9785C30.1656 22.0151 29.798 22.9805 31.7026 20.5157C32.0134 20.1135 33.9076 17.8383 34.1704 17.6623C34.1704 18.5879 34.1704 19.5133 34.1704 20.4387C34.1704 21.5857 33.8859 22.8293 34.7875 22.8293C35.1475 22.8293 35.3272 22.6495 35.3272 22.2895V15.8115C35.3272 15.5935 35.0057 15.3487 34.7875 15.3487C34.3375 15.3487 33.9265 16.0425 33.4965 16.5255L30.0835 20.5929Z" fill="#268698"/>
<path fill-rule="evenodd" clip-rule="evenodd" d="M20.983 3.93509C20.983 4.4095 21.4814 4.5521 21.9858 4.5521H36.33C37.7548 4.5521 37.4774 3.31828 36.7154 3.31828H21.6C21.227 3.31828 20.983 3.56228 20.983 3.93509Z" fill="#268698"/>
<path fill-rule="evenodd" clip-rule="evenodd" d="M4.40256 11.57C4.40256 12.436 5.06174 13.121 6.02113 13.1134C6.54452 13.1092 6.79331 13.0507 6.79331 13.4979C6.79331 13.8201 6.52572 13.7293 5.86793 13.7293C5.55993 13.7293 5.57608 13.1895 5.09669 13.1895C4.3249 13.1895 4.25331 14.2755 5.2063 14.7765C5.65369 15.0115 5.46014 14.7245 5.67114 15.1601C5.97893 15.7951 6.47328 15.5971 6.66308 15.3727C7.18327 14.7581 6.34452 15.3167 7.32151 14.7201C8.21969 14.1714 8.32906 12.7762 7.24448 12.1214C6.64428 11.7588 5.63653 12.2408 5.63653 11.57C5.63653 11.2252 6.07754 11.2614 6.33074 11.2614C6.87233 11.2614 6.7045 11.6196 7.2119 11.6796C7.74189 11.742 8.43286 10.8628 7.12448 10.2362C6.63848 10.0034 6.9281 10.1746 6.7487 9.76362C6.5753 9.36702 5.91594 9.18222 5.67395 9.83363C5.46915 10.385 5.67875 10.0337 5.14716 10.3093C4.79196 10.4933 4.40256 11.083 4.40256 11.57Z" fill="#268698"/>
<path fill-rule="evenodd" clip-rule="evenodd" d="M4.94223 29.3845C4.94223 29.7747 5.36022 30.0015 5.79082 30.0015H14.5052C15.6592 30.0015 15.4612 28.7677 14.6592 28.7677H5.55926C5.13606 28.7677 4.94223 29.1053 4.94223 29.3845Z" fill="#268698"/>
<path fill-rule="evenodd" clip-rule="evenodd" d="M9.3381 10.3361C9.3381 10.8269 9.44572 11.1073 10.1091 11.1073H16.2017C17.0989 11.1073 17.0989 9.87351 16.2017 9.87351H9.95514C9.67314 9.87351 9.3381 10.0861 9.3381 10.3361Z" fill="#268698"/>
<path fill-rule="evenodd" clip-rule="evenodd" d="M8.79843 26.9939C8.79843 27.3669 9.04218 27.6109 9.41538 27.6109H14.6592C15.435 27.6109 15.63 26.3769 14.5052 26.3769H9.49257C9.11937 26.3769 8.79843 26.5959 8.79843 26.9939Z" fill="#268698"/>
<path fill-rule="evenodd" clip-rule="evenodd" d="M4.94223 24.6031C4.94223 24.9761 5.18626 25.2201 5.55927 25.2201H10.8807C11.7675 25.2201 11.5579 24.0633 11.0349 24.0633H5.40528C5.18728 24.0633 4.94223 24.3849 4.94223 24.6031Z" fill="#268698"/>
<path fill-rule="evenodd" clip-rule="evenodd" d="M9.3381 12.7269C9.3381 13.2445 9.5067 13.4979 10.1863 13.4979H12.4998C12.9674 13.4979 13.3192 13.4211 13.4468 13.0475C13.5674 12.6943 13.342 12.2641 12.8856 12.2641H9.95512C9.67313 12.2641 9.3381 12.4769 9.3381 12.7269Z" fill="#268698"/>
<path fill-rule="evenodd" clip-rule="evenodd" d="M9.3381 14.4235C9.3381 14.9411 9.5067 15.1947 10.1863 15.1947H12.4998C12.9674 15.1947 13.3192 15.1177 13.4468 14.7441C13.5674 14.3909 13.342 13.9607 12.8856 13.9607H9.95512C9.67313 13.9607 9.3381 14.1735 9.3381 14.4235Z" fill="#268698"/>
<path fill-rule="evenodd" clip-rule="evenodd" d="M4.94223 20.5157C4.94223 20.8141 5.39142 21.1577 5.57862 21.3449C6.41579 22.1821 6.42864 22.2303 7.27521 21.3833C7.6682 20.9905 7.87277 20.9457 7.87277 20.3615C7.87277 20.1167 7.24134 19.3859 6.48476 20.5157C6.36017 20.4325 5.63459 19.4997 5.1148 20.0713C5.04181 20.1515 4.94223 20.3943 4.94223 20.5157Z" fill="#268698"/>
<path fill-rule="evenodd" clip-rule="evenodd" d="M4.94223 26.9939C4.94223 27.7963 6.09538 27.6109 6.87034 27.6109C7.7205 27.6109 7.69711 26.3769 6.79316 26.3769C6.28138 26.3769 4.94223 26.1881 4.94223 26.9939Z" fill="#268698"/>
<path fill-rule="evenodd" clip-rule="evenodd" d="M12.8086 24.6031C12.8086 25.4349 13.6214 25.2201 14.8136 25.2201C15.3812 25.2201 15.578 24.0633 14.7364 24.0633C13.5934 24.0633 12.8086 23.8683 12.8086 24.6031Z" fill="#268698"/>
<path fill-rule="evenodd" clip-rule="evenodd" d="M34.1704 13.1895V13.6521C34.1704 14.4505 35.3271 14.3603 35.3271 13.8065C35.3271 13.3849 35.4524 12.5725 34.7874 12.5725C34.4144 12.5725 34.1704 12.8165 34.1704 13.1895Z" fill="#268698"/>
<path fill-rule="evenodd" clip-rule="evenodd" d="M27.9237 17.2769C27.9237 18.6499 29.1578 18.3161 29.1578 17.5853C29.1578 17.0803 29.1843 16.5827 28.5407 16.5827C28.1426 16.5827 27.9237 16.9037 27.9237 17.2769Z" fill="#268698"/>
<path fill-rule="evenodd" clip-rule="evenodd" d="M21.4459 19.0507C21.4459 19.5555 21.4191 20.0531 22.0629 20.0531C22.8321 20.0531 23.0543 18.4337 21.9085 18.4337C21.6587 18.4337 21.4459 18.7687 21.4459 19.0507Z" fill="#268698"/>
<path fill-rule="evenodd" clip-rule="evenodd" d="M9.02963 3.93507C9.02963 2.70549 7.19934 3.54286 8.00217 4.34565C8.40059 4.74384 9.02963 4.38146 9.02963 3.93507Z" fill="#268698"/>
<path fill-rule="evenodd" clip-rule="evenodd" d="M3.70859 3.85809C3.70859 4.3947 4.28663 4.72029 4.69384 4.38389C5.10145 4.04748 4.92664 3.31828 4.32563 3.31828C3.99542 3.31828 3.70859 3.55589 3.70859 3.85809Z" fill="#268698"/>
<path fill-rule="evenodd" clip-rule="evenodd" d="M5.79074 3.78107C5.79074 4.77452 6.94736 4.77452 6.94736 3.78107C6.94736 3.13684 5.79074 3.21624 5.79074 3.78107Z" fill="#268698"/>
</svg>
