<svg width="47" height="47" viewBox="0 0 47 47" fill="none" xmlns="http://www.w3.org/2000/svg">
<path fill-rule="evenodd" clip-rule="evenodd" d="M14.0439 12.6336C14.0439 10.5632 15.2213 7.62696 16.7525 6.11216C17.6497 5.22396 18.2341 4.74016 19.4089 4.15376C23.9897 1.86796 29.822 3.52416 32.2862 8.44636C33.8742 11.6184 33.5133 15.6174 31.4125 18.416C30.7505 19.2976 29.95 20.0584 29.045 20.6628C25.7456 22.8664 21.4377 22.8358 18.2279 20.5774C18.0111 20.425 17.7826 20.2478 17.5598 20.065C17.3016 19.8528 17.0822 19.7318 16.8632 19.4738L15.8454 18.1306C15.1198 17.046 14.6306 16.1398 14.3526 14.7936C14.2678 14.3832 14.0439 13.0566 14.0439 12.6336ZM22.954 0.93396H24.4493C26.0339 1.03016 27.6029 1.43256 29.0329 2.14796C29.8337 2.54876 30.8848 3.23956 31.5076 3.85836C31.783 4.13196 32.0193 4.25476 32.2411 4.51996C34.1719 6.82776 35.504 9.12016 35.504 12.419C35.504 15.2554 35.0129 16.8348 33.6189 19.1202C33.0557 20.0432 32.6133 20.5162 31.8843 21.2492C31.5149 21.6204 31.2301 21.77 30.8607 22.1572C30.5413 22.4918 30.2796 22.8898 30.0318 23.2602C30.8494 23.3282 32.6068 23.7758 32.6068 24.7628C32.6068 26.7744 30.0072 25.496 29.2126 25.2602C24.61 23.8932 19.6998 24.5414 15.4222 26.249C12.9004 27.2554 10.4415 29.085 8.54426 30.9612L6.47067 33.5022C5.22707 35.2264 3.09926 39.6058 3.09926 41.6148C3.09926 42.7402 3.53528 43.715 4.35208 44.1184C5.87928 44.872 11.4584 44.3314 12.5344 44.5202C13.7318 44.7302 13.3416 46.6596 12.5418 46.6596H5.35262C3.05902 46.6596 0.845825 44.2876 0.845825 42.366C0.845825 38.3242 3.16763 34.061 5.52043 31.049C6.39703 29.9266 7.70025 28.6086 8.76145 27.7436C10.5659 26.2732 10.77 26.1434 12.7218 25.0506C14.4122 24.104 15.5306 23.689 17.37 23.2602C16.7632 22.1128 16.1126 21.8362 15.4636 21.196C13.0808 18.8456 11.8979 16.0684 11.8979 12.3118C11.8979 9.88577 13.1737 6.75136 14.6625 5.09476C15.3395 4.34136 14.9754 4.63936 15.7272 4.01336C16.6244 3.26596 17.5947 2.50136 18.6579 2.00736C20.0003 1.38356 21.4666 1.02396 22.954 0.93396Z" fill="#208598"/>
<path fill-rule="evenodd" clip-rule="evenodd" d="M31.1047 33.8865H19.9454C17.192 33.8861 18.1314 33.9361 16.2704 35.7917C14.882 37.1759 13.7372 37.8121 14.6058 39.0129C15.094 39.6871 17.799 42.5805 18.5506 42.5805H24.774C25.9052 42.5805 26.1698 40.6961 24.8568 40.4581C24.6336 40.4175 24.2062 40.4097 23.961 40.3873L19.838 40.4341C18.4652 40.4341 17.2628 38.4563 17.2628 38.1799C17.2628 37.8165 18.3944 36.7427 18.6868 36.4913C19.431 35.8511 20.163 36.0333 21.4478 36.0333H30.89C32.3311 36.0339 32.755 36.2389 33.159 35.0827C34.406 31.5147 33.8408 31.9543 40.5473 31.9543C41.3097 31.9543 42.1121 32.0721 42.5627 32.4069C43.6639 33.2261 44.4101 36.6045 44.4101 37.9651C44.4101 39.4509 44.0142 41.1657 43.6206 42.3275C43.0914 43.8895 42.5807 44.5127 40.5473 44.5127H36.3626C32.1024 44.5127 34.2755 40.4341 31.9633 40.4341C29.873 40.4341 31.4087 44.6027 33.0783 45.8659C33.5719 46.2397 34.3671 46.6595 35.1821 46.6595H42.0495C43.5043 46.6595 44.8091 45.1751 45.4135 43.9065C46.1721 42.3137 46.5512 40.2723 46.556 38.2397V38.1209C46.5354 33.9253 44.9163 29.8075 41.7275 29.8075H35.2894C34.0374 29.8075 33.1712 30.4639 32.524 31.1201C31.6364 32.0199 31.6689 32.8197 31.1047 33.8865Z" fill="#208598"/>
<path fill-rule="evenodd" clip-rule="evenodd" d="M38.7231 38.18C38.7231 39.5048 40.9764 39.7938 40.9764 38.0726C40.9764 36.7034 38.7231 36.8556 38.7231 38.18Z" fill="#208598"/>
</svg>
