<svg width="188" height="72" viewBox="0 0 188 72" fill="none" xmlns="http://www.w3.org/2000/svg">
<path fill-rule="evenodd" clip-rule="evenodd" d="M150.679 29.1986C150.73 29.3788 153.157 34.0016 153.234 34.15L157.094 41.5786C157.723 42.7918 158.418 44.0782 159.009 45.3064C159.093 45.4802 159.363 46.1308 159.529 46.1836C159.696 46.2366 161.559 46.1904 161.835 46.1892C162.453 46.1862 163.105 46.2146 163.717 46.181C164.266 46.1512 164.229 46.0752 164.719 45.3004C165.468 44.1152 166.182 43.0654 166.975 41.9116C167.996 40.4254 168.991 38.9202 170.016 37.4264L174.581 30.7022C174.835 30.3306 175.087 29.9532 175.338 29.5766C175.451 29.4064 176.02 28.5416 176.112 28.4702C176.118 28.7458 175.677 32.7838 175.637 33.1774C175.475 34.7508 175.31 36.3134 175.15 37.8874C174.832 41.0358 174.501 44.1728 174.159 47.3106C174.069 48.1322 174.35 48.8498 174.787 49.2206C175.429 49.7646 175.843 49.7552 176.855 49.7552C177.72 49.7552 178.585 49.7552 179.45 49.7552C180.186 49.7552 181.311 49.8314 181.948 49.6178C182.604 49.398 183.142 48.9356 183.441 48.516C183.89 47.8868 183.949 47.4368 184.047 46.5324C184.079 46.2392 184.312 43.7562 184.383 43.6142C184.493 43.3936 184.454 43.4612 184.494 43.0792L187.357 15.9982C187.418 15.4458 187.631 14.085 187.527 13.611C187.386 12.9662 186.843 12.4732 186.102 12.4316C185.146 12.4312 177.401 12.2848 177.023 12.51C176.488 12.8286 176.017 13.5788 175.459 14.4412C174.057 16.6108 163.044 33.3126 163.044 33.3126C163.044 33.3126 154.699 16.9668 153.79 14.9654C153.258 13.7968 152.788 12.6438 151.754 12.4294C149.936 12.4024 146.025 12.1844 144.357 12.4664C143.673 12.5822 143.083 12.8928 142.663 13.674C142.355 14.2484 142.235 16.1728 142.144 17.0152L141.99 18.152C141.881 18.9008 141.821 19.7074 141.739 20.4622L139.454 41.4432C139.285 43.0014 139.143 44.557 138.976 46.115C138.897 46.8502 138.706 47.752 138.949 48.4336C139.158 49.0196 139.659 49.4988 140.302 49.6754C140.844 49.8242 142.156 49.7552 142.793 49.7552C143.658 49.7552 144.523 49.7552 145.388 49.7552C146.305 49.7552 146.792 49.6596 147.419 49.2156C148.756 48.2702 148.679 47.0416 148.847 45.4916C148.932 44.717 149.047 43.902 149.124 43.167L150.582 29.7686C150.599 29.612 150.607 29.3066 150.679 29.1986Z" fill="#3A8FA3"/>
<path fill-rule="evenodd" clip-rule="evenodd" d="M105.039 49.755L129.899 49.7552C130.681 49.7552 132.764 49.846 133.376 49.6558C134.168 49.4096 134.866 48.6728 134.98 47.7278C135.109 46.6516 135.213 45.5848 135.33 44.5056C135.388 43.9732 135.506 43.4282 135.316 42.9344C135.162 42.5328 134.827 42.2062 134.402 42.066C133.892 41.8982 131.611 41.98 130.904 41.98H118.447C117.929 41.98 117.174 42.0244 116.684 41.973L117.46 34.4866C117.709 34.43 121.548 34.4704 122.146 34.4704H129.25C129.961 34.4704 130.84 34.5642 131.445 34.2946C132.858 33.665 132.754 32.3134 132.895 31.0006C132.97 30.3078 133.046 29.6006 133.123 28.908C133.213 28.0992 132.906 27.5574 132.391 27.3046C131.89 27.0594 130.823 27.1474 130.191 27.1474C126.237 27.1474 122.284 27.1474 118.33 27.1474L119.047 20.2134C119.403 20.1616 133.017 20.2034 133.337 20.2034C134.092 20.2034 136.24 20.2906 136.804 20.093C137.664 19.7914 138.274 19.0542 138.379 18.0998C138.498 17.0206 138.613 15.9542 138.729 14.879C138.786 14.3502 138.897 13.8056 138.684 13.3228C138.193 12.2134 137.021 12.428 135.965 12.428C127.01 12.428 118.055 12.428 109.1 12.428L105.039 49.755Z" fill="#3A8FA3"/>
<path fill-rule="evenodd" clip-rule="evenodd" d="M72.7254 45.7716C72.8268 45.8208 73.2552 46.2618 73.3372 46.3548C73.7274 46.7972 74.7814 47.5496 75.2966 47.8992C78.407 50.0112 82.6786 50.7192 86.554 50.6578C91.6918 50.5766 96.7226 49.224 99.3518 44.7364C101.423 41.2014 101.705 37.5016 102.146 33.4752L104.212 14.53C104.251 14.1756 104.288 13.8334 104.326 13.4798C104.357 13.1974 104.444 12.6792 104.429 12.4184C101.67 12.4 98.9134 12.3734 96.1562 12.3548C93.4092 12.3366 90.6258 12.2638 87.884 12.2988C85.0436 12.3352 81.9816 12.766 80.4716 15.2798C79.6452 16.6554 79.2584 18.5608 79.1608 20.2034H93.8702C93.8854 20.4784 93.795 21.022 93.7624 21.3256L92.2054 35.7174C92.1286 36.4358 92.0702 37.1882 91.927 37.8782C90.7714 43.448 83.8078 43.5384 80.1804 40.4848C79.797 40.162 79.003 39.3776 78.925 39.3154L75.82 42.517C75.6822 42.665 75.5662 42.7888 75.4286 42.937C75.3004 43.075 75.1656 43.1856 75.0374 43.3238L73.4844 44.9504C73.3258 45.0878 72.7968 45.6228 72.7254 45.7716Z" fill="#3A8FA3"/>
<path d="M65.0818 69.9558C64.2326 69.9558 63.4082 69.8076 62.6088 69.5116C61.8094 69.2154 61.204 68.844 60.7924 68.397L61.1824 67.7432C61.5806 68.168 62.142 68.517 62.8666 68.7908C63.5912 69.0646 64.3278 69.2014 65.0766 69.2014C66.2052 69.2014 67.0854 68.9724 67.7176 68.5142C68.3498 68.0562 68.6268 67.4192 68.5486 66.6036C68.5078 66.179 68.349 65.8326 68.0718 65.5644C67.7946 65.2962 67.4614 65.0838 67.0722 64.9274C66.6828 64.771 66.1612 64.6034 65.507 64.4246C64.7482 64.2012 64.1362 63.9944 63.671 63.8044C63.2058 63.6144 62.802 63.3352 62.4592 62.9664C62.1166 62.5976 61.917 62.1172 61.8602 61.525C61.7916 60.8098 61.9278 60.1896 62.2686 59.6644C62.6092 59.1392 63.1074 58.7398 63.7628 58.466C64.4182 58.1922 65.1872 58.0554 66.07 58.0554C66.7516 58.0554 67.411 58.1448 68.0482 58.3236C68.6856 58.5024 69.2376 58.7538 69.7046 59.0778L69.3698 59.7818C68.9262 59.4688 68.4228 59.2286 67.8592 59.061C67.2956 58.8934 66.712 58.8096 66.1088 58.8096C65.0136 58.8096 64.1534 59.0444 63.528 59.5136C62.9024 59.983 62.6288 60.6254 62.707 61.4412C62.7488 61.877 62.9116 62.2344 63.1952 62.5138C63.479 62.7932 63.8156 63.011 64.205 63.1676C64.5942 63.324 65.1276 63.4972 65.8052 63.6872C66.564 63.9106 67.1702 64.1146 67.6236 64.299C68.0772 64.4832 68.4718 64.7542 68.8078 65.1118C69.1438 65.4694 69.339 65.9332 69.3938 66.503C69.4986 67.598 69.1498 68.4472 68.3472 69.0506C67.5446 69.654 66.4562 69.9558 65.0818 69.9558ZM80.0846 58.9102L79.6062 63.5362H85.8412L85.7626 64.2906H79.5276L79.0164 69.101H86.2572L86.1634 69.872H78.0846L79.3068 58.1392H87.151L87.0572 58.9102H80.0846ZM100.657 69.9558C99.5176 69.9558 98.5234 69.7546 97.6748 69.3524C96.8262 68.95 96.1574 68.3858 95.6688 67.6594C95.1802 66.9332 94.8898 66.0896 94.7978 65.1286C94.6756 63.8548 94.8532 62.6758 95.3304 61.592C95.8076 60.5082 96.552 59.6478 97.5636 59.0108C98.5752 58.3738 99.7962 58.0554 101.227 58.0554C102.132 58.0554 102.952 58.195 103.689 58.4744C104.425 58.7538 105.013 59.1504 105.454 59.6644L104.903 60.2176C104.033 59.3012 102.811 58.8432 101.235 58.8432C100.006 58.8432 98.949 59.1254 98.0644 59.6896C97.18 60.2538 96.529 61.011 96.1116 61.9608C95.6942 62.9106 95.5402 63.9552 95.6494 65.095C95.7692 66.3466 96.261 67.3382 97.1246 68.0702C97.988 68.802 99.1628 69.168 100.649 69.168C102.258 69.168 103.504 68.6986 104.386 67.76L104.962 68.3466C104.497 68.8608 103.89 69.2574 103.14 69.5368C102.39 69.816 101.563 69.9558 100.657 69.9558ZM118.244 69.9558C116.937 69.9558 115.891 69.6262 115.107 68.9668C114.323 68.3076 113.875 67.3858 113.761 66.2012C113.726 65.8326 113.729 65.3968 113.77 64.8938L114.48 58.1392H115.335L114.64 64.8772C114.589 65.2794 114.585 65.704 114.628 66.151C114.722 67.1342 115.079 67.883 115.698 68.397C116.317 68.911 117.157 69.168 118.219 69.168C119.448 69.168 120.401 68.8188 121.077 68.1204C121.753 67.422 122.166 66.341 122.316 64.8772L123.012 58.1392H123.866L123.159 64.9274C122.821 68.2796 121.183 69.9558 118.244 69.9558ZM142.433 61.374C142.549 62.5808 142.322 63.567 141.753 64.3324C141.184 65.0978 140.325 65.6034 139.175 65.8492L141.823 69.872H140.885L138.316 65.9834C137.961 66.0058 137.688 66.017 137.498 66.017H133.978L133.577 69.872H132.722L133.944 58.1392H138.051C139.347 58.1392 140.377 58.4214 141.14 58.9856C141.904 59.55 142.335 60.346 142.433 61.374ZM137.426 65.2626C138.878 65.2626 139.965 64.9386 140.685 64.2906C141.405 63.6424 141.705 62.6926 141.585 61.4412C141.507 60.6254 141.165 59.9996 140.559 59.5638C139.953 59.1282 139.124 58.9102 138.074 58.9102H134.722L134.057 65.2626H137.426ZM152.084 58.1392H152.939L151.717 69.872H150.862L152.084 58.1392ZM165.252 58.9102H161.029L161.122 58.1392H170.425L170.348 58.9102H166.124L164.979 69.872H164.124L165.252 58.9102ZM181.35 65.9332L180.94 69.872H180.085L180.502 65.8326L176.58 58.1392H177.469L181 65.0782L185.95 58.1392H186.905L181.35 65.9332Z" fill="#407985"/>
<path fill-rule="evenodd" clip-rule="evenodd" d="M68.422 9.056C57.0104 3.025 45.6822 0.117794 34.4318 0.135394C23.1816 0.117794 11.8532 3.025 0.441589 9.056C0.764789 21.2702 -0.0766101 30.2148 2.21719 38.4204C2.56619 39.6686 2.97599 40.9036 3.43599 42.117L3.43579 42.1174L3.43599 42.1172C6.13959 49.2506 10.5878 55.6376 14.755 59.5944C20.3978 64.952 26.6162 69.1918 34.4318 71.3286C42.2474 69.1918 48.4658 64.952 54.1086 59.5944C58.9848 54.9644 64.2462 47.0074 66.6464 38.4204C68.9402 30.2148 68.099 21.2702 68.422 9.056ZM34.5696 10.989C34.9448 11.4998 34.0194 12.0722 31.1294 12.7382C30.1526 11.8102 28.3942 11.6642 26.1732 11.9802C27.646 10.545 30.298 10.0924 34.5696 10.989ZM37.1776 6.8022C39.435 8.864 40.2936 10.119 39.7634 10.5724C49.2564 12.6492 50.1658 19.141 47.868 23.983C37.4078 15.5082 27.4802 27.554 27.7198 40.1392C27.9236 50.8588 31.5648 56.248 41.2064 63.048C41.421 63.1994 47.9152 58.6674 50.8834 55.8228C55.0112 51.8672 59.4648 45.069 61.4966 37.733C63.4382 30.7224 62.726 22.4392 62.9996 12.004C53.5322 7.97559 47.2156 5.98519 36.0894 5.05299L37.1776 6.8022Z" fill="url(#paint0_linear)"/>
<path fill-rule="evenodd" clip-rule="evenodd" d="M3.43599 42.117L3.43579 42.1174L3.43599 42.1172C5.66339 47.994 9.07499 53.364 12.538 57.2862H34.2344C29.733 52.6474 27.8642 47.7298 27.7198 40.1392C27.4802 27.554 37.4078 15.5082 47.868 23.983C37.7664 14.5004 11.569 25.0206 3.43599 42.117Z" fill="url(#paint1_linear)"/>
<defs>
<linearGradient id="paint0_linear" x1="27.2016" y1="50.0756" x2="1.77939" y2="12.9918" gradientUnits="userSpaceOnUse">
<stop stop-color="#59A3B9"/>
<stop offset="1" stop-color="#56E8F2"/>
</linearGradient>
<linearGradient id="paint1_linear" x1="23.82" y1="28.5018" x2="26.9686" y2="51.3584" gradientUnits="userSpaceOnUse">
<stop stop-color="#3A8FA3"/>
<stop offset="1" stop-color="#59A3B9"/>
</linearGradient>
</defs>
</svg>
