<svg width="43" height="43" viewBox="0 0 43 43" fill="none" xmlns="http://www.w3.org/2000/svg">
<path fill-rule="evenodd" clip-rule="evenodd" d="M8.76557 16.6366C10.3784 16.6366 11.3154 16.844 12.5338 17.9208C13.2602 18.5628 13.9924 19.3782 14.6936 20.0794L25.572 30.9578C26.6718 32.0576 26.9832 32.6078 28.7296 32.6078C29.9402 32.6078 30.688 31.7496 31.3168 31.1208L36.4094 26.028C36.6276 25.81 37.5032 24.64 38.3316 25.4504C39.2472 26.3462 38.063 27.145 37.1836 28.0242C36.0068 29.201 32.0924 33.2676 31.2406 33.8152C29.9904 34.619 27.7106 34.9378 27.2612 34.3206C27.1794 34.2084 27.0884 33.9542 26.9852 33.7818C26.678 33.269 26.2834 32.8156 25.809 32.432C25.1684 31.9142 24.411 31.5082 23.4932 31.3256C22.6986 31.1676 22.4582 30.696 21.62 29.8578C21.0432 29.281 20.5262 28.764 19.9494 28.1872L11.5158 19.7536C10.065 18.3016 9.41178 18.504 7.32338 18.78L3.56358 19.2614C1.77318 19.501 1.84159 17.585 3.02319 17.3316L6.78538 16.8566C7.37138 16.7792 8.08637 16.6366 8.76557 16.6366ZM17.3718 0.3396H17.844C18.0272 0.3642 18.2092 0.417386 18.3832 0.500186C19.1396 0.860385 23.3306 5.24839 24.1054 6.02319C24.6872 6.60519 27.6128 9.35299 27.7518 9.87339C28.4842 9.38279 29.4962 7.91139 30.2344 7.54839C31.7036 6.82579 32.6538 8.1344 33.3538 8.8346L40.5654 16.0458C41.3442 16.8246 42.5772 17.8142 42.6636 18.7474V19.1404C42.606 19.7488 42.2816 20.161 41.9518 20.488L38.4264 24.0518C38.8954 24.3 39.026 24.3032 39.3816 24.7262C39.6296 25.0212 39.8148 25.363 39.8754 25.7812C39.9572 26.3432 39.8596 26.8062 39.6804 27.18C39.4868 27.5836 39.2718 27.7292 38.9764 28.0242C37.0886 29.9104 34.4512 32.6686 32.6218 34.3816C31.2586 35.6582 29.5522 35.8674 27.7518 35.8674C27.7518 36.2904 27.8456 36.275 27.8364 36.68C27.8232 37.247 27.6158 38.2134 27.3736 38.7486C26.4618 40.7628 24.7256 41.8782 22.908 42.0602H21.8422C20.6536 41.941 19.4918 41.4218 18.5642 40.4916C16.2768 38.1982 17.5774 37.4396 18.2196 37.8168C18.4414 37.9472 18.6826 38.629 18.8516 38.9004C19.7608 40.3596 21.7506 41.1786 23.565 40.644C26.2652 39.848 27.447 36.5732 25.716 34.1548C24.1554 31.9742 20.6768 31.8368 18.949 34.2354C18.0298 35.5114 18.6878 36.1116 17.403 36.1116C17.2358 35.8618 17.0028 35.7308 17.1046 35.252C17.2626 34.5068 17.79 33.5572 18.3192 33.035C20.0088 31.367 20.2534 31.774 21.2328 31.3042C20.9778 30.9232 20.1664 30.1968 19.7866 29.817C19.2778 29.3082 18.8286 28.8592 18.3198 28.3502L12.4528 22.4832C11.944 21.9746 11.495 21.5254 10.9862 21.0166C10.4918 20.5222 10.1748 19.968 9.28038 19.8694C8.80058 19.8166 4.9658 20.376 4.1278 20.4734C2.9272 20.6132 2.54899 20.6298 1.75499 20.062C1.31939 19.7502 1.01359 19.18 0.942993 18.5598V18.0174C1.01959 17.3578 1.386 16.709 2.1626 16.308C2.9946 15.8786 8.74919 15.333 9.90639 15.333C9.64179 14.9378 8.77438 14.1602 8.37858 13.7644C7.63738 13.0232 6.37497 12.1374 6.69377 10.9002C6.83177 10.3648 6.953 10.2724 7.261 9.91679C7.6888 9.42279 7.73877 9.47879 8.05557 9.16339C8.45637 8.76459 7.99038 9.1184 8.78538 8.4264C9.09498 8.1568 9.23337 7.91699 9.52877 7.62179L10.7212 6.451C10.7998 6.3646 10.8174 6.34279 10.916 6.23819C12.3404 4.72279 12.6548 6.1678 12.3722 6.5494L10.049 8.8344L17.3418 16.0866L21.7018 11.6862L14.4696 4.49538C14.2646 4.63278 14.1614 4.8406 13.8356 4.8064C13.4432 4.7652 12.8824 4.20559 13.6156 3.55979L16.3092 0.875576C16.6064 0.573576 16.9808 0.3918 17.3718 0.3396ZM30.013 25.2538L28.113 23.3648C27.9912 23.23 27.95 23.177 27.8316 23.0756L26.4778 21.7404C26.3498 21.6214 26.3018 21.5902 26.1846 21.4634C26.1108 21.3838 26.143 21.4112 26.0704 21.3328C26.0592 21.3206 26.0428 21.3026 26.0314 21.2906L25.633 20.874L34.5762 11.8904L39.017 16.2906L30.013 25.2538ZM24.3294 20.711C24.3294 21.6026 24.8556 21.8484 25.5314 22.524L28.3834 25.376C30.289 27.2818 30.096 26.9634 32.6614 24.3982C33.2852 23.7742 39.5244 17.454 39.893 17.2072C40.1718 17.3938 41.2924 18.4788 41.392 18.8106C41.5454 19.3212 40.6438 20.0008 40.0764 20.5684L31.4796 29.165C30.3254 30.3202 30.427 30.0274 28.5462 28.1466L23.9422 23.5426C23.8234 23.4236 22.644 21.9124 22.1974 23.0704C21.981 23.6318 22.8928 24.2858 23.4126 24.8056L28.587 29.98C29.475 30.868 29.0956 30.4464 29.7074 30.9782C29.4338 31.0512 29.4472 31.1414 29.1618 31.2474C28.1204 31.6344 27.5192 31.1128 26.8758 30.469C25.9288 29.521 18.1488 21.8278 17.892 21.4444C18.6296 20.9506 18.6956 20.6654 19.1142 20.385C19.3378 20.719 20.4686 22.0868 20.9802 22.0746C21.4652 22.0628 21.559 21.6934 21.559 21.2814C21.559 20.8932 20.1736 20.0774 20.1736 19.5702C20.1736 19.1246 20.922 18.5364 21.3754 18.083L28.1388 11.3196C28.4816 10.977 30.6724 8.6512 30.9298 8.6512C31.6204 8.6512 31.9044 9.17759 32.4168 9.68999C32.7622 10.0354 33.377 10.5718 33.6188 10.9328C33.5352 11.245 32.7626 11.9112 32.4984 12.1754C32.0846 12.5892 31.7304 12.943 31.3168 13.3568C30.4956 14.1782 29.734 14.9396 28.913 15.7608C28.1052 16.5684 27.3576 17.3162 26.5498 18.1238C26.0734 18.6 24.3294 20.1074 24.3294 20.711ZM15.4474 3.59897C15.5254 3.30697 17.2008 1.61697 17.5776 1.58577C17.9478 1.55497 18.1858 1.89439 18.4014 2.11179L25.409 9.11979C27.2568 10.9674 27.2814 10.3846 24.4312 13.2348C23.61 14.0558 22.8486 14.8172 22.0274 15.6386C21.6636 16.0022 17.5002 20.385 17.0772 20.385C16.615 20.385 16.079 19.6722 15.7938 19.387L10.0898 13.683C9.67859 13.2718 7.95057 11.7472 7.95057 11.2586C7.95057 10.8312 8.91939 9.96178 9.17299 9.79198C9.55819 10.0498 15.0658 15.6438 15.9974 16.5756C16.6492 17.2276 16.6372 17.3702 17.4846 17.3702C18.0808 17.3702 19.9852 15.2362 20.4792 14.7422C21.0816 14.1396 23.0256 12.483 23.0256 11.6662C23.0256 10.9952 21.9288 10.1212 21.294 9.4864L17.3826 5.57499C16.9066 5.09899 15.7594 4.06457 15.4474 3.59897Z" fill="#268698"/>
<path fill-rule="evenodd" clip-rule="evenodd" d="M21.3144 36.7637C21.3144 35.0863 23.433 35.1677 23.433 36.7637C23.433 37.9629 21.3144 38.0953 21.3144 36.7637ZM20.0106 36.5191C20.0106 37.9191 21.0696 38.9635 22.1292 38.9635C22.7338 38.9635 22.8906 39.0067 23.4366 38.7227C25.7798 37.5037 24.566 34.3189 22.6182 34.3189C21.879 34.3189 21.2724 34.3961 20.6802 34.9883C20.3988 35.2695 20.0106 35.9861 20.0106 36.5191Z" fill="#268698"/>
<path fill-rule="evenodd" clip-rule="evenodd" d="M14.2252 11.2586C14.7692 11.2586 15.2622 10.5068 15.7938 9.97519C16.1654 9.6034 17.7858 8.3096 16.5836 7.917C15.9876 7.72241 15.405 8.57141 14.8566 9.11981C14.531 9.44521 14.123 9.80142 13.8386 10.1392C13.457 10.5922 13.5224 11.2586 14.2252 11.2586Z" fill="#268698"/>
<path fill-rule="evenodd" clip-rule="evenodd" d="M32.0704 16.0664C32.0704 16.5274 33.1614 17.4424 33.639 17.92C34.121 18.402 34.5588 19.0736 35.0892 18.8486C36.246 18.3582 34.6446 17.133 34.2502 16.7386C33.7996 16.288 33.168 15.496 32.7224 15.496C32.3736 15.496 32.0704 15.747 32.0704 16.0664Z" fill="#268698"/>
<path fill-rule="evenodd" clip-rule="evenodd" d="M15.8548 12.8883C15.8548 13.2825 16.1126 13.5403 16.5068 13.5403C16.9114 13.5403 17.1157 13.2181 17.3419 12.9901C17.7495 12.5799 19.2771 11.2676 19.2771 10.7698C19.2771 10.3836 18.9459 10.1178 18.6253 10.1178C18.2971 10.1178 15.8548 12.5601 15.8548 12.8883Z" fill="#268698"/>
<path fill-rule="evenodd" clip-rule="evenodd" d="M36.878 16.8812C36.878 16.3832 35.3504 15.0708 34.943 14.6606C34.7168 14.4328 34.5122 14.1106 34.1076 14.1106C33.4282 14.1106 33.3104 14.7986 33.7164 15.2348L35.7539 17.2726C36.2813 17.7634 36.878 17.4204 36.878 16.8812Z" fill="#268698"/>
<path fill-rule="evenodd" clip-rule="evenodd" d="M12.8398 9.87327C13.3378 9.87327 14.65 8.34551 15.0604 7.93812C15.3696 7.63113 16.1002 6.84356 15.1962 6.52957C14.6134 6.32697 14.0558 7.14996 13.4714 7.73434C13.1222 8.08353 12.7782 8.39513 12.4486 8.74912C12.0426 9.18531 12.1604 9.87327 12.8398 9.87327Z" fill="#268698"/>
<path fill-rule="evenodd" clip-rule="evenodd" d="M32.5594 21.1184C33.1482 21.1184 33.2112 20.8824 33.2112 20.385C33.2112 20.1634 30.8254 17.7774 30.6038 17.7774C29.8684 17.7774 29.6796 18.2242 29.8864 18.65C30.0246 18.9348 31.2512 20.0954 31.5612 20.4054C31.813 20.6572 32.1216 21.1184 32.5594 21.1184Z" fill="#268698"/>
<path fill-rule="evenodd" clip-rule="evenodd" d="M27.5888 20.6294C27.5888 21.118 30.0128 23.3999 30.2778 23.3999C30.7666 23.3999 31.0112 23.0479 31.0112 22.7481C31.0112 22.4199 28.5688 19.9776 28.2408 19.9776C27.8464 19.9776 27.5888 20.2354 27.5888 20.6294Z" fill="#268698"/>
</svg>
