<svg width="33" height="38" viewBox="0 0 33 38" fill="none" xmlns="http://www.w3.org/2000/svg">
<path fill-rule="evenodd" clip-rule="evenodd" d="M30.5394 1.65433H31.7484V36.7199H30.5394V1.65433ZM1.51969 1.65433H2.72876V36.7199H1.51969V1.65433ZM3.9379 33.6969H29.3302V34.3015H3.9379V33.6969ZM19.0524 24.0237H20.8661V27.0465C20.8661 27.4121 21.1052 27.6511 21.4708 27.6511H25.0982C25.4638 27.6511 25.7028 27.4121 25.7028 27.0465V24.0237H27.5164V32.4879H19.0524V24.0237ZM11.7974 26.4421H13.0065C13.0065 29.3079 12.5405 28.8603 16.0293 28.8603C16.8757 28.8603 16.6339 27.7305 16.6339 26.4421H17.8432V32.4879H11.7974V26.4421ZM5.75173 30.0695H8.16994V32.4879H5.75173V30.0695ZM14.2157 26.4421H15.425V27.6511H14.2157V26.4421ZM22.0752 24.0237H24.4936V26.4421H22.0752V24.0237ZM17.8432 23.4191V25.2329H11.1929C10.8271 25.2329 10.5884 25.4719 10.5884 25.8375V32.4879H9.37916V29.4649C9.37916 29.0993 9.14015 28.8603 8.77455 28.8603H5.14712C4.78152 28.8603 4.54251 29.0993 4.54251 29.4649V32.4879H3.9379V19.7917H29.3302V32.4879H28.7256V23.4191C28.7256 23.0535 28.4866 22.8145 28.121 22.8145H18.4478C18.0822 22.8145 17.8432 23.0535 17.8432 23.4191ZM3.9379 17.9781H29.3302V18.5825H3.9379V17.9781ZM25.0982 14.3505H27.5164V16.7687H25.0982V14.3505ZM15.425 10.7231H16.6339C16.6339 13.5889 16.168 13.1413 19.657 13.1413C20.5032 13.1413 20.2615 12.0115 20.2615 10.7231H21.4708V16.7687H15.425V10.7231ZM5.75173 8.30472H7.56533V11.3277C7.56533 11.6933 7.80434 11.9321 8.16994 11.9321H11.7974C12.163 11.9321 12.402 11.6933 12.402 11.3277V8.30472H14.2157V16.7687H5.75173V8.30472ZM17.8432 10.7231H19.0524V11.9321H17.8432V10.7231ZM8.77455 8.30472H11.1929V10.7231H8.77455V8.30472ZM15.425 3.46812H16.6339C16.6339 6.33392 16.168 5.88652 19.657 5.88652C20.5032 5.88652 20.2615 4.75652 20.2615 3.46812H21.4708V9.5139H15.425V3.46812ZM17.8432 3.46812H19.0524V4.6773H17.8432V3.46812ZM0.310547 1.04973V37.3245C0.310547 37.6901 0.549522 37.9289 0.914923 37.9289H3.33337C4.17957 37.9289 3.9379 36.7991 3.9379 35.5107H29.3302C29.3302 38.3765 28.8642 37.9289 32.353 37.9289C32.7186 37.9289 32.9576 37.6901 32.9576 37.3245V1.04973C32.9576 0.684326 32.7186 0.445312 32.353 0.445312H29.9348C29.5692 0.445312 29.3302 0.684326 29.3302 1.04973V16.7687H28.7256V13.7459C28.7256 13.3805 28.4866 13.1413 28.121 13.1413H24.4936C24.128 13.1413 23.889 13.3805 23.889 13.7459V16.7687H22.6797V2.86371C22.6797 2.49811 22.4408 2.25914 22.0752 2.25914H14.8203C14.4547 2.25914 14.2157 2.49811 14.2157 2.86371V7.0957H5.14712C4.78152 7.0957 4.54251 7.33451 4.54251 7.70011V16.7687H3.9379V1.04973C3.9379 0.684326 3.69897 0.445312 3.33337 0.445312H0.914923C0.549522 0.445312 0.310547 0.684326 0.310547 1.04973Z" fill="#268698"/>
</svg>
