<svg width="41" height="41" viewBox="0 0 41 41" fill="none" xmlns="http://www.w3.org/2000/svg">
<path fill-rule="evenodd" clip-rule="evenodd" d="M14.3916 33.722C14.5666 33.47 14.9602 33.1563 15.1868 33.0045L18.0775 35.8566C17.8729 36.1528 17.5604 36.3879 17.2822 36.5743L14.3916 33.722ZM10.2204 32.2284C11.048 28.675 12.5759 28.8089 16.3407 28.1827C16.7107 28.1211 17.2018 27.9926 17.5926 27.9602L20.3275 30.7354L23.1216 27.9795L25.9289 28.4708C26.9779 28.6682 27.828 28.7293 28.638 29.1763C29.8508 29.8457 30.0993 31.0632 30.5233 32.3354C30.6693 32.7734 30.8418 33.2014 30.9404 33.6252L18.5236 33.6256C17.3962 33.6314 17.7881 33.7044 16.4093 32.3254C16.0803 31.9964 15.4949 31.4856 15.2647 31.142C15.1075 31.247 15.1137 31.2682 14.9715 31.392L14.0229 32.2284C12.7029 33.2358 12.3414 34.418 11.4026 33.4518C11.0662 33.1054 10.457 32.582 10.2204 32.2284ZM18.5057 27.0472C19.2249 27.0446 19.5858 27.4253 21.315 27.1817C21.6506 27.1343 21.8296 27.0364 22.1712 27.029L20.3279 28.9106L18.5057 27.0472ZM3.08067 24.3129L6.04888 27.2427C5.69308 27.7631 5.48645 27.8048 5.48645 28.6586C5.48645 29.5552 6.05784 30.0448 6.70864 30.6956C7.36844 31.3556 10.3048 34.3568 10.8168 34.7358C11.9702 35.5894 12.6571 35.0284 13.4021 34.634L16.2926 37.4864C16.1144 37.7428 15.59 38.1621 15.3122 38.3293C13.9814 39.1301 12.3773 38.7615 11.2471 37.6429L6.12661 32.5195C4.98201 31.3749 2.54742 29.231 2.08122 28.0284C1.72222 27.1024 1.88608 26.1212 2.30208 25.319C2.49728 24.9428 2.84847 24.6599 3.08067 24.3129ZM4.07044 23.4008L4.69208 22.7424L7.60083 25.6131L6.97927 26.2713L4.07044 23.4008ZM26.2844 23.3817L26.5721 22.3501C26.6509 22.0791 26.6986 21.9861 27.3708 21.8295C27.3708 23.0145 27.5162 23.3817 26.2844 23.3817ZM24.8098 23.3817H20.3089V24.7008H23.6458C21.2808 26.7564 17.7098 26.1742 16.0548 23.6002C14.9576 21.8938 15.2647 19.9652 15.2647 17.639C16.2629 17.5558 17.4099 17.2226 18.1371 16.864C19.6869 16.1 19.6869 15.8049 20.3089 15.3885C21.0775 15.7951 22.2879 17.3774 25.4307 17.639C25.4307 18.6994 25.4254 19.7615 25.4316 20.8217C25.4406 22.3229 24.9484 22.7869 24.8098 23.3817ZM13.3244 19.579C13.3244 19.0212 13.5381 18.7652 13.9453 18.4924V20.5879C13.5901 20.4931 13.3244 20.0372 13.3244 19.579ZM26.7498 20.5879V18.4924C27.3466 18.8922 27.5609 19.5101 27.1875 20.1717C27.0485 20.4183 26.9822 20.4651 26.7498 20.5879ZM14.7215 16.3197H13.9453V17.0958C13.6563 17.1196 13.5346 17.2173 13.3244 17.3287C13.3244 14.5691 13.1313 12.9797 14.8421 10.6977C17.2739 7.45448 22.7058 6.89565 25.8008 10.6723C27.5228 12.7734 27.3708 14.6159 27.3708 17.3287C27.1604 17.2173 27.0388 17.1196 26.7498 17.0958V16.3197C25.136 16.3197 24.0044 16.2382 22.6212 15.404C22.1322 15.109 21.8635 14.9357 21.4533 14.5543C21.2435 14.3591 21.1244 14.3057 20.909 14.0897C20.7118 13.8917 20.5335 13.7454 20.3865 13.5258C19.9829 13.796 19.3607 14.6272 18.0739 15.404C17.2635 15.8932 15.9995 16.3197 14.7215 16.3197ZM12.0053 14.7674V19.6567C12.0053 20.8025 13.0057 21.9778 14.0229 22.0622C14.2781 23.158 14.652 23.9322 15.2416 24.7238C16.434 26.325 17.1111 26.0036 17.1271 26.7186C16.7611 26.7186 16.1066 26.8691 15.7876 26.9313C14.6452 27.1545 12.8257 27.3981 11.9483 27.7481C11.1989 28.0469 10.6473 28.5013 10.1653 29.0693C9.90568 29.3751 9.75743 29.6428 9.57263 30.0286C9.39202 30.4044 9.29728 30.8016 9.13388 31.142C8.94928 31.0182 6.80567 28.9936 6.80567 28.6586C6.80567 28.0454 8.96284 26.4668 9.52184 25.6322L4.72927 20.8793C4.28607 21.1837 1.53248 23.9158 1.06208 24.8552C0.316278 26.3452 0.345431 28.0014 1.27903 29.3738C1.96423 30.3806 8.06023 36.3155 9.34723 37.6027C10.8234 39.0789 11.5203 40.0664 13.9453 40.0664C14.7563 40.0664 15.3843 39.7924 15.9379 39.498C16.6045 39.1438 16.8291 38.7912 17.3411 38.3402L19.9983 35.8758L19.0485 34.9632L32.803 34.9447L31.7066 31.6952C30.9038 29.286 30.2807 27.9088 27.3261 27.384L23.5683 26.7186V26.3304C23.8736 26.249 24.3608 25.8585 24.5958 25.6511C24.9406 25.3463 25.1803 25.0748 25.4307 24.7008C26.5893 24.7008 27.6961 24.8818 28.3682 23.8358C28.5095 23.6162 28.69 23.1819 28.69 22.8385V14.8453C28.69 11.4297 26.4232 8.74305 23.7504 7.44565C22.9016 7.03365 21.3401 6.71686 20.3843 6.69386C19.4711 6.67186 17.8168 7.03687 16.9968 7.42007C15.24 8.24127 13.6209 9.70466 12.8057 11.4551C12.4109 12.3031 12.0053 13.566 12.0053 14.7674Z" fill="#268698"/>
<path fill-rule="evenodd" clip-rule="evenodd" d="M32.1822 10.4992C32.1822 9.65357 32.5042 8.80834 32.5702 8.01574C31.82 8.01574 31.0698 8.01558 30.3196 8.01598C29.5144 8.01658 28.69 8.13558 28.69 7.31759V2.42841C28.69 1.96581 28.8484 1.6524 29.3108 1.6524H38.3906C38.559 1.6524 38.7264 1.8056 38.8042 1.9374C39.0536 2.36039 38.9338 6.15477 38.9338 7.00716C38.9338 8.10555 38.4391 8.01738 37.3815 8.01598C37.1175 8.01558 36.3676 7.98397 36.16 8.03617L32.1822 10.4992ZM27.3708 2.27341V7.47258C27.3708 8.20238 27.8679 8.80594 28.4539 9.10573C29.1087 9.44113 30.043 9.33515 31.018 9.33515C30.869 9.64594 30.484 12.7955 30.3198 13.1377C30.688 13.0519 31.7822 12.2963 32.1866 12.0557C32.4124 11.9215 32.5966 11.7927 32.8066 11.6669L36.4886 9.37355C37.1992 9.12875 40.2529 10.1086 40.2529 7.08477V2.66122C40.2529 1.92842 40.1387 1.53201 39.8229 1.07361C39.5923 0.739216 39.0011 0.333229 38.4679 0.333229H29.1556C28.1935 0.333229 27.3708 1.26882 27.3708 2.27341Z" fill="#268698"/>
<path fill-rule="evenodd" clip-rule="evenodd" d="M2.92479 16.0092C2.67959 15.845 1.85979 14.4033 1.68299 14.0693C1.30859 14.2673 0.983551 14.4852 0.596352 14.69C0.624152 15.0214 2.67637 18.3674 2.84697 18.4924C3.25697 18.3832 6.16217 16.429 6.57197 16.3196C6.51297 16.0664 6.13179 15.4968 5.95119 15.1556C5.70359 15.2216 5.32894 15.4896 5.10174 15.6256C4.87394 15.762 4.51893 16.0228 4.24393 16.0868C4.71433 14.0674 5.59594 12.3107 6.66494 10.7477C7.27694 9.85265 8.28157 8.68964 9.07376 7.95684C9.73496 7.34524 10.7815 6.55463 11.5531 6.09043C12.3299 5.62323 12.9402 5.24925 13.8444 4.88965C14.6834 4.55565 15.5764 4.19844 16.4724 4.02524C20.0963 3.32484 21.6399 3.44426 25.2745 4.29106C25.4275 3.97206 25.5726 3.43526 25.6626 3.04946C24.9696 2.71686 22.5286 2.36746 21.7712 2.28446C18.0604 1.87846 13.5534 3.16066 10.6842 5.06626C10.1302 5.43425 9.16759 6.09444 8.68759 6.56184C8.45999 6.78364 8.30257 6.86344 8.06517 7.10344C7.70097 7.47184 7.22457 7.88325 6.91517 8.28145C5.41417 10.2138 5.32033 10.133 4.14033 12.4912C3.75493 13.2614 2.94139 15.2542 2.92479 16.0092Z" fill="#268698"/>
<path fill-rule="evenodd" clip-rule="evenodd" d="M37.4592 14.6124C37.9018 14.8466 39.0395 15.5555 39.3215 15.6213C39.4301 15.1561 39.8249 14.9371 39.8647 14.4571C39.4257 14.2249 36.4184 12.3139 36.0622 12.2843C35.9974 12.5631 35.703 12.9729 35.5436 13.2401C35.3452 13.5729 35.1612 13.8487 34.9794 14.1503C34.7544 14.5239 33.9662 15.7569 33.8894 16.0869C34.2798 16.1911 34.6631 16.6035 35.0535 16.7077C35.1113 16.4603 35.9408 15.0689 36.14 14.9229C36.181 15.4179 36.8574 16.8853 36.914 19.1931C36.9374 20.1469 37.0728 19.5961 36.9272 20.9097C36.9018 21.1401 36.9272 21.3681 36.9162 21.5969C36.787 24.2558 35.4396 27.7933 33.8344 29.9231C33.638 30.1837 33.4352 30.4279 33.2686 30.6765C33.3578 30.7983 33.5839 30.9633 33.7239 31.0749C33.9051 31.2193 34.0477 31.391 34.2775 31.4524C34.5251 31.2864 35.2576 30.2229 35.446 29.9049C35.6082 29.6311 35.7764 29.3837 35.9532 29.0927C36.1364 28.7907 36.2626 28.4902 36.4244 28.167C37.3082 26.4028 38.0712 23.9356 38.231 21.8252C38.3534 20.2092 38.29 18.3872 37.9704 16.8174C37.8894 16.4206 37.844 16.1055 37.7374 15.7311C37.6424 15.3975 37.467 14.9562 37.4592 14.6124Z" fill="#268698"/>
<path fill-rule="evenodd" clip-rule="evenodd" d="M29.9316 4.21348H37.692V2.89402H29.9316V4.21348Z" fill="#268698"/>
<path fill-rule="evenodd" clip-rule="evenodd" d="M29.9316 6.77445H35.1312V5.45506H29.9316V6.77445Z" fill="#268698"/>
<path fill-rule="evenodd" clip-rule="evenodd" d="M36.3726 6.77445H37.692V5.45506H36.3726V6.77445Z" fill="#268698"/>
</svg>
