<svg width="20" height="20" viewBox="0 0 20 20" fill="none" xmlns="http://www.w3.org/2000/svg">
<path fill-rule="evenodd" clip-rule="evenodd" d="M9.94564 0.194672C15.2598 0.194672 19.5677 4.5313 19.5677 9.88107C19.5677 15.2308 15.2598 19.5675 9.94564 19.5675C4.63143 19.5675 0.323669 15.2308 0.323669 9.88107C0.323669 4.5313 4.63143 0.194672 9.94564 0.194672ZM12.5689 6.0961C12.5689 5.52491 12.2463 4.71532 11.8269 4.29755C11.5811 4.05272 11.4212 3.91943 11.0994 3.75756C10.7334 3.57394 10.3384 3.48253 9.94564 3.47911C9.55284 3.48253 9.15769 3.57394 8.79189 3.75756C8.47009 3.91943 8.31003 4.05272 8.06423 4.29755C7.64483 4.71532 7.32251 5.52491 7.32251 6.0961C7.32251 6.21248 7.38369 6.57831 7.40689 6.69166C7.48309 7.06273 7.61699 7.31259 7.81579 7.61178L8.09439 7.98204C8.15459 8.05332 8.21468 8.08654 8.28548 8.14513C8.34648 8.19546 8.40909 8.24439 8.46829 8.28627C8.90929 8.59874 9.42604 8.75639 9.94564 8.75961C10.465 8.75639 10.9818 8.59874 11.4228 8.28627C11.4822 8.24439 11.5448 8.19546 11.6058 8.14513C11.6766 8.08654 11.7367 8.05332 11.7967 7.98204L12.0755 7.61178C12.2741 7.31259 12.408 7.06273 12.4842 6.69166C12.5074 6.57831 12.5689 6.21248 12.5689 6.0961ZM7.76626 14.8773C7.93126 14.8773 8.06485 15.012 8.06485 15.1779C8.06485 15.3438 7.93126 15.4785 7.76626 15.4785C7.60126 15.4785 7.46767 15.3438 7.46767 15.1779C7.46767 15.012 7.60126 14.8773 7.76626 14.8773ZM9.94564 2.86965H10.1283C10.5357 2.89462 10.9374 2.99388 11.305 3.16582C11.5962 3.30193 11.8618 3.51293 12.1078 3.7189C12.3136 3.89165 12.2138 3.8093 12.3994 4.01708C12.8072 4.47392 13.1567 5.33827 13.1567 6.00711C13.1567 7.0432 12.8327 7.80889 12.1799 8.457C12.0023 8.63357 11.8238 8.70968 11.6578 9.02618C12.1616 9.14437 12.4681 9.25893 12.9311 9.51987C13.4657 9.82127 13.5216 9.85691 14.0156 10.2626C14.3064 10.501 14.6635 10.8644 14.9035 11.1739C15.5481 12.0046 16.1839 13.1802 16.1839 14.2946C16.1839 14.8245 15.5779 15.4785 14.9497 15.4785H8.6547C8.4357 15.4785 8.32873 14.9465 8.65673 14.8886C8.95153 14.8366 14.8052 14.9856 15.2236 14.7778C15.4474 14.6667 15.5669 14.3977 15.5669 14.0874C15.5669 13.5333 14.9839 12.3257 14.6433 11.8504L14.0753 11.1497C13.5557 10.6325 12.8821 10.1279 12.1913 9.85046C11.4867 9.56718 10.7194 9.3898 9.94564 9.3751C9.17164 9.3898 8.40446 9.56718 7.69985 9.85046C7.00925 10.1279 6.33559 10.6325 5.81579 11.1497L5.24782 11.8504C4.90722 12.3257 4.32446 13.5333 4.32446 14.0874C4.32446 14.3977 4.44386 14.6667 4.66766 14.7778C5.08586 14.9856 6.61411 14.8366 6.90892 14.8886C7.23692 14.9465 7.12999 15.4785 6.91079 15.4785H4.94165C4.31345 15.4785 3.70727 14.8245 3.70727 14.2946C3.70727 13.1802 4.34326 12.0046 4.98766 11.1739C5.22766 10.8644 5.58468 10.501 5.87548 10.2626C6.36968 9.85691 6.42552 9.82127 6.96032 9.51987C7.42332 9.25893 7.72945 9.14437 8.23345 9.02618C8.06725 8.70968 7.88906 8.63357 7.71126 8.457C7.05846 7.80889 6.7347 7.0432 6.7347 6.00711C6.7347 5.33827 7.08388 4.47392 7.49189 4.01708C7.67729 3.8093 7.57749 3.89165 7.78329 3.7189C8.02929 3.51293 8.29491 3.30193 8.58611 3.16582C8.95391 2.99388 9.35543 2.89462 9.76283 2.86965H9.94564ZM9.94564 0.762849C14.948 0.762849 19.0033 4.84519 19.0033 9.88107C19.0033 14.9169 14.948 18.9993 9.94564 18.9993C4.94323 18.9993 0.888045 14.9169 0.888045 9.88107C0.888045 4.84519 4.94323 0.762849 9.94564 0.762849Z" fill="#FEFEFE"/>
</svg>
